<svg xmlns="http://www.w3.org/2000/svg" xmlns:xlink="http://www.w3.org/1999/xlink" width="500" zoomAndPan="magnify" viewBox="0 0 375 374.999991" height="500" preserveAspectRatio="xMidYMid meet" version="1.0">
<defs><clipPath id="0a18abaef9"><path d="M 29.171875 7.582031 L 331 7.582031 L 331 358 L 29.171875 358 Z M 29.171875 7.582031 " clip-rule="nonzero"/></clipPath><clipPath id="b0c9afb0b0"><path d="M 195 110 L 343.421875 110 L 343.421875 364.582031 L 195 364.582031 Z M 195 110 " clip-rule="nonzero"/></clipPath></defs><g clip-path="url(#0a18abaef9)"><path fill="#000000" d="M 176.816406 357.222656 C 166.269531 351.152344 156.632812 345.605469 146.871094 339.988281 C 146.871094 281.125 146.871094 222.679688 146.871094 163.460938 C 186.472656 140.566406 226.296875 117.539062 266.757812 94.148438 C 261.527344 88.757812 254.777344 87.019531 249.515625 83.078125 C 243.722656 78.726562 238.589844 78.523438 231.796875 82.546875 C 196.34375 103.53125 160.492188 123.839844 124.796875 144.429688 C 123.167969 145.371094 121.789062 146.742188 119.28125 148.695312 C 119.28125 206.148438 119.28125 264.261719 119.28125 324.019531 C 88.335938 306.175781 58.957031 289.226562 29.171875 272.054688 C 29.171875 213.453125 29.171875 155.0625 29.171875 95.648438 C 79.660156 66.507812 130.484375 37.171875 181.371094 7.804688 C 191.863281 13.503906 201.953125 18.984375 212.628906 26.058594 C 161.527344 55.585938 111.640625 84.398438 61.542969 113.34375 C 61.542969 161.042969 61.542969 208.425781 61.542969 255.96875 C 69.523438 261.097656 77.347656 265.882812 85.671875 269.863281 C 88.011719 266.992188 87.140625 264.140625 87.152344 261.53125 C 87.214844 220.40625 87.234375 179.277344 87.132812 138.152344 C 87.125 133.152344 87.964844 129.46875 92.902344 126.644531 C 141.511719 98.832031 189.992188 70.785156 238.507812 42.8125 C 239.035156 42.503906 239.695312 42.421875 241.046875 41.996094 C 270.035156 58.703125 299.441406 75.644531 330.636719 93.628906 C 278.894531 123.519531 228.417969 152.683594 177.425781 182.136719 C 178.027344 240.257812 179.59375 298.113281 176.816406 357.222656 Z M 176.816406 357.222656 " fill-opacity="1" fill-rule="nonzero"/></g><g clip-path="url(#b0c9afb0b0)"><path fill="#000000" d="M 312.914062 127.292969 C 312.914062 172.578125 312.914062 217.453125 312.914062 262.585938 C 304.007812 268.25 295.097656 273.554688 284.921875 278.953125 C 284.921875 233.355469 284.921875 189.347656 284.921875 143.863281 C 273.46875 150.203125 264.5625 155.5625 254.386719 161.191406 C 254.386719 206.382812 254.386719 251.226562 254.386719 296.613281 C 245.480469 302.074219 236.574219 307.3125 225.121094 313.589844 C 225.121094 267.796875 225.121094 223.800781 225.121094 178.296875 C 214.945312 184.128906 204.980469 189.292969 195.613281 195.652344 L 195.933594 335.230469 C 195.648438 342.636719 195.898438 350.058594 196 357.484375 C 196.027344 359.675781 195.445312 362.222656 198.582031 364.359375 C 246.777344 336.542969 295.097656 308.570312 343.449219 280.886719 C 343.449219 223.765625 343.449219 167.597656 343.449219 110.316406 C 333.265625 116.1875 323.089844 121.519531 312.914062 127.292969 Z M 312.914062 127.292969 " fill-opacity="1" fill-rule="nonzero"/></g>

</svg>